Coordinates
version=1
nRows=28
nColumns=33
inDegrees=yes

Units are S.I. units (second, meters, Newtons, ...)
Angles are in degrees.

endheader
time	ground_thorax_rot_x	ground_thorax_rot_y	ground_thorax_rot_z	ground_thorax_tx	ground_thorax_ty	ground_thorax_tz	clav_prot_r	clav_elev_r	scapula_abduction_r	scapula_elevation_r	scapula_upward_rot_r	scapula_winging_r	shoulder_elv_r	plane_of_elev_r	axial_rot_r	elbow_flexion_r	pro_sup_r	wrist_flex_r	wrist_dev_r	clav_prot_l	clav_elev_l	scapula_abduction_l	scapula_elevation_l	scapula_upward_rot_l	scapula_winging_l	shoulder_elv_l	plane_of_elev_l	axial_rot_l	elbow_flexion_l	pro_sup_l	wrist_flex_l	wrist_dev_l	
4.9400	-90.000000	90.000000	-90.000000	-188.717793	817.532305	5.595522	30.386498	40.242381	45.000000	45.000000	6.896394	-3980.439778	639.637518	159.829226	-9.027322	1812.551918	21.715041	19.658764	7.635311	-45.000000	2.466890	37.798264	-14.091516	-45.000000	1907.743492	-4023.602707	150.822502	34.723932	-709.658900	10.177045	7.488775	-20.642072	
4.9500	-90.000000	90.000000	-90.000000	-190.849679	818.411085	5.571759	30.254087	40.208350	45.000000	45.000000	6.992468	-3980.309375	639.688811	159.773459	-8.698023	1812.561163	21.428834	19.659608	7.575999	-45.000000	2.436846	37.637716	-14.031866	-45.000000	1907.696818	-4023.439785	150.760036	34.309039	-709.635061	9.746929	7.444933	-20.630265	
4.9600	-90.000000	90.000000	-90.000000	-192.919035	819.280000	5.551718	30.126618	40.176085	45.000000	45.000000	7.084802	-3980.184968	639.740908	159.714850	-8.365669	1812.573724	21.141627	19.661133	7.513744	-45.000000	2.396436	37.479246	-13.966374	-45.000000	1907.654985	-4023.269598	150.695396	33.884039	-709.615854	9.324747	7.400269	-20.616857	
4.9700	-90.000000	90.000000	-90.000000	-194.925104	820.133825	5.535915	30.002443	40.144243	45.000000	45.000000	7.172660	-3980.061949	639.795725	159.660561	-8.029689	1812.585139	20.862073	19.662218	7.450091	-45.000000	2.357643	37.317079	-13.898933	-45.000000	1907.617338	-4023.102553	150.634962	33.452275	-709.608853	8.914084	7.355128	-20.599914	
4.9800	-90.000000	90.000000	-90.000000	-196.867409	820.967010	5.525058	29.882901	40.112613	45.000000	45.000000	7.258678	-3979.956836	639.847999	159.593349	-7.693049	1812.597283	20.596583	19.661930	7.378696	-45.000000	2.313958	37.168623	-13.832691	-45.000000	1907.573398	-4022.923161	150.564146	33.018438	-709.590671	8.516150	7.308900	-20.585212	
4.9900	-90.000000	90.000000	-90.000000	-198.746350	821.774263	5.519980	29.764832	40.080876	45.000000	45.000000	7.339222	-3979.854267	639.905143	159.532222	-7.352828	1812.601293	20.351250	19.658776	7.306239	-45.000000	2.275023	37.017620	-13.770152	-45.000000	1907.528065	-4022.750502	150.494827	32.582021	-709.571327	8.129963	7.263006	-20.569600	
5.0000	-90.000000	90.000000	-90.000000	-200.562768	822.550830	5.521606	29.650962	40.052018	45.000000	45.000000	7.417225	-3979.752663	639.964333	159.479147	-7.007921	1812.602318	20.132543	19.654550	7.229467	-45.000000	2.222133	36.864386	-13.702305	-45.000000	1907.492043	-4022.577409	150.422143	32.142040	-709.553514	7.761125	7.219022	-20.554809	
5.0100	-90.000000	90.000000	-90.000000	-202.318291	823.293016	5.530974	29.540169	40.025961	45.000000	45.000000	7.491677	-3979.649761	640.029312	159.435036	-6.657874	1812.603611	19.945436	19.649021	7.150673	-45.000000	2.165118	36.707429	-13.630594	-45.000000	1907.462697	-4022.409932	150.355180	31.701075	-709.548830	7.413451	7.174758	-20.536933	
5.0200	-90.000000	90.000000	-90.000000	-204.014826	823.998380	5.549204	29.433053	40.000487	45.000000	45.000000	7.568688	-3979.565232	640.089769	159.378802	-6.310344	1812.610255	19.788533	19.641722	7.062860	-45.000000	2.104452	36.562727	-13.556071	-45.000000	1907.431751	-4022.233205	150.281717	31.264230	-709.537894	7.085512	7.127667	-20.520670	
5.0300	-90.000000	90.000000	-90.000000	-205.654695	824.665984	5.577520	29.326670	39.976013	45.000000	45.000000	7.643325	-3979.485199	640.153366	159.326325	-5.963355	1812.617002	19.660903	19.631659	6.973889	-45.000000	2.046970	36.418393	-13.479412	-45.000000	1907.401039	-4022.060886	150.213964	30.828682	-709.528939	6.773799	7.077895	-20.502779	
5.0400	-90.000000	90.000000	-90.000000	-207.240470	825.296152	5.616912	29.223532	39.954608	45.000000	45.000000	7.718931	-3979.413131	640.216352	159.274249	-5.617531	1812.625819	19.561309	19.619707	6.881491	-45.000000	1.978231	36.277113	-13.396534	-45.000000	1907.377705	-4021.886912	150.143647	30.394394	-709.519309	6.480430	7.025870	-20.485628	
5.0500	-90.000000	90.000000	-90.000000	-208.775322	825.890220	5.667859	29.122315	39.935933	45.000000	45.000000	7.794287	-3979.344686	640.280822	159.225800	-5.273021	1812.635952	19.489103	19.604772	6.788506	-45.000000	1.908273	36.139067	-13.311245	-45.000000	1907.355111	-4021.716641	150.078465	29.963711	-709.512512	6.207235	6.969642	-20.467054	
5.0600	-90.000000	90.000000	-90.000000	-210.262977	826.449902	5.729785	29.022881	39.920918	45.000000	45.000000	7.870477	-3979.282235	640.346575	159.177007	-4.929803	1812.645649	19.442449	19.587406	6.694795	-45.000000	1.834160	36.004420	-13.224453	-45.000000	1907.337345	-4021.549134	150.012385	29.537693	-709.504917	5.956387	6.910750	-20.449003	
5.0700	-90.000000	90.000000	-90.000000	-211.708027	826.977107	5.801206	28.925072	39.908773	45.000000	45.000000	7.951398	-3979.219685	640.410430	159.133628	-4.589518	1812.654454	19.421022	19.566865	6.598783	-45.000000	1.758280	35.872227	-13.137255	-45.000000	1907.322667	-4021.386386	149.949911	29.117394	-709.499374	5.730711	6.848075	-20.430698	
5.0800	-90.000000	90.000000	-90.000000	-213.115688	827.473581	5.879708	28.828570	39.902695	45.000000	45.000000	8.031554	-3979.149909	640.481144	159.101940	-4.244278	1812.661456	19.427856	19.544863	6.504865	-45.000000	1.677780	35.738204	-13.050855	-45.000000	1907.317897	-4021.231787	149.888700	28.701322	-709.501833	5.536892	6.785328	-20.411776	
5.0900	-90.000000	90.000000	-90.000000	-214.491797	827.941234	5.962785	28.734840	39.896415	45.000000	45.000000	8.124046	-3979.098123	640.538232	159.053399	-3.906413	1812.673583	19.458953	19.518809	6.397954	-45.000000	1.605308	35.619412	-12.971254	-45.000000	1907.305768	-4021.074578	149.825395	28.298687	-709.498314	5.374557	6.714379	-20.394252	
5.1000	-90.000000	90.000000	-90.000000	-215.842265	828.382252	6.048246	28.640520	39.894873	45.000000	45.000000	8.213080	-3979.033215	640.604389	159.019895	-3.558992	1812.683191	19.518261	19.490737	6.293630	-45.000000	1.538307	35.501085	-12.898222	-45.000000	1907.298769	-4020.927575	149.763207	27.899684	-709.499616	5.248426	6.643929	-20.376214	
5.1100	-90.000000	90.000000	-90.000000	-217.172671	828.799492	6.135199	28.550089	39.889723	45.000000	45.000000	8.317677	-3979.001251	640.648390	158.949742	-3.220025	1812.703778	19.595866	19.457623	6.167420	-45.000000	1.485918	35.403167	-12.834815	-45.000000	1907.278067	-4020.773648	149.696307	27.515828	-709.485646	5.154358	6.560188	-20.360915	
5.1200	-90.000000	90.000000	-90.000000	-218.487169	829.195983	6.223839	28.458040	39.887974	45.000000	45.000000	8.414079	-3978.943130	640.706338	158.909393	-2.865310	1812.721665	19.695985	19.422248	6.047150	-45.000000	1.441839	35.299672	-12.776876	-45.000000	1907.263461	-4020.634470	149.635293	27.129262	-709.475546	5.099666	6.477647	-20.344510	
5.1300	-90.000000	90.000000	-90.000000	-219.787713	829.574376	6.315548	28.370336	39.884462	45.000000	45.000000	8.516162	-3978.905206	640.753016	158.845281	-2.511231	1812.751731	19.807113	19.383973	5.911731	-45.000000	1.405989	35.208703	-12.725163	-45.000000	1907.243476	-4020.491832	149.572395	26.751717	-709.457717	5.083905	6.381221	-20.329264	
5.1400	-90.000000	90.000000	-90.000000	-221.073962	829.936284	6.412171	28.280930	39.882724	45.000000	45.000000	8.605345	-3978.829778	640.819604	158.821573	-2.141493	1812.779011	19.930293	19.344700	5.788922	-45.000000	1.379558	35.114546	-12.680508	-45.000000	1907.227386	-4020.361127	149.514985	26.370172	-709.446612	5.113726	6.285785	-20.311476	
5.1500	-90.000000	90.000000	-90.000000	-222.343459	830.281899	6.515988	28.195597	39.879751	45.000000	45.000000	8.691597	-3978.768627	640.884404	158.778586	-1.774181	1812.814661	20.054643	19.305638	5.659633	-45.000000	1.357121	35.025798	-12.641364	-45.000000	1907.211934	-4020.229989	149.456441	25.995106	-709.437983	5.188700	6.177252	-20.292913	
5.1600	-90.000000	90.000000	-90.000000	-223.592916	830.610112	6.629024	28.110131	39.873651	45.000000	45.000000	8.771128	-3978.683351	640.958890	158.762426	-1.408371	1812.843775	20.181305	19.265691	5.540657	-45.000000	1.343769	34.940578	-12.611292	-45.000000	1907.193659	-4020.103625	149.398782	25.622398	-709.431248	5.312871	6.066061	-20.272530	
5.1700	-90.000000	90.000000	-90.000000	-224.819162	830.918933	6.752923	28.027364	39.867795	45.000000	45.000000	8.838346	-3978.607500	641.040686	158.732562	-1.049762	1812.871600	20.308149	19.228905	5.425951	-45.000000	1.331352	34.853925	-12.586650	-45.000000	1907.180246	-4019.982217	149.340564	25.255071	-709.433842	5.487286	5.944831	-20.250327	
5.1800	-90.000000	90.000000	-90.000000	-226.021064	831.206529	6.888389	27.946422	39.854897	45.000000	45.000000	8.910176	-3978.524986	641.116486	158.710917	-0.708462	1812.890378	20.436961	19.190275	5.314026	-45.000000	1.325704	34.776306	-12.571061	-45.000000	1907.159253	-4019.859792	149.279017	24.898121	-709.433669	5.712997	5.816845	-20.227432	
5.1900	-90.000000	90.000000	-90.000000	-227.199210	831.471589	7.035093	27.866668	39.843799	45.000000	45.000000	8.966767	-3978.456652	641.201372	158.671156	-0.374051	1812.905161	20.573160	19.156250	5.209073	-45.000000	1.322316	34.693990	-12.559703	-45.000000	1907.141960	-4019.744738	149.217990	24.547354	-709.439627	5.991539	5.681253	-20.203598	
5.2000	-90.000000	90.000000	-90.000000	-228.356019	831.713696	7.191308	27.789435	39.823922	45.000000	45.000000	9.040706	-3978.394687	641.265554	158.629188	-0.063015	1812.913198	20.718588	19.118396	5.097073	-45.000000	1.325083	34.621662	-12.554275	-45.000000	1907.114392	-4019.624975	149.153715	24.211736	-709.433320	6.321442	5.534994	-20.181075	
5.2100	-90.000000	90.000000	-90.000000	-229.494215	831.933018	7.354109	27.710359	39.812091	45.000000	45.000000	9.090109	-3978.328952	641.353206	158.589437	0.256666	1812.917533	20.885339	19.087307	5.001992	-45.000000	1.328505	34.539429	-12.551553	-45.000000	1907.093887	-4019.516946	149.092901	23.876773	-709.435281	6.706707	5.387298	-20.157059	
